<svg width="30" height="30" viewBox="0 0 30 30" fill="none" xmlns="http://www.w3.org/2000/svg">
<path d="M26.2595 9.85194C26.9064 9.85194 27.5268 10.1089 27.9842 10.5663C28.4417 11.0238 28.6986 11.6442 28.6986 12.291V17.1693C28.6986 17.8162 28.4417 18.4365 27.9842 18.894C27.5268 19.3514 26.9064 19.6084 26.2595 19.6084H24.9644C24.6671 21.9661 23.5195 24.1344 21.7371 25.7061C19.9547 27.2779 17.66 28.1452 15.2836 28.1452V25.7061C17.2242 25.7061 19.0854 24.9352 20.4577 23.5629C21.83 22.1907 22.6009 20.3295 22.6009 18.3888V11.0715C22.6009 9.13082 21.83 7.26963 20.4577 5.89736C19.0854 4.5251 17.2242 3.75417 15.2836 3.75417C13.3429 3.75417 11.4817 4.5251 10.1094 5.89736C8.73717 7.26963 7.96624 9.13082 7.96624 11.0715V19.6084H4.30758C3.66068 19.6084 3.04029 19.3514 2.58287 18.894C2.12545 18.4365 1.86847 17.8162 1.86847 17.1693V12.291C1.86847 11.6442 2.12545 11.0238 2.58287 10.5663C3.04029 10.1089 3.66068 9.85194 4.30758 9.85194H5.60274C5.90035 7.49441 7.04801 5.32651 8.83038 3.75499C10.6127 2.18348 12.9073 1.31638 15.2836 1.31638C17.6598 1.31638 19.9544 2.18348 21.7367 3.75499C23.5191 5.32651 24.6668 7.49441 24.9644 9.85194H26.2595ZM10.1127 19.3462L11.4054 17.2778C12.5677 18.0059 13.912 18.391 15.2836 18.3888C16.6551 18.391 17.9994 18.0059 19.1617 17.2778L20.4545 19.3462C18.9047 20.3171 17.1123 20.8307 15.2836 20.8279C13.4548 20.8307 11.6624 20.3171 10.1127 19.3462Z" fill="#F9995D"/>
</svg>
